<svg width="16" height="14" fill="none" xmlns="http://www.w3.org/2000/svg"><path d="M14.344 3.75a6.952 6.952 0 001.625-1.688 6.151 6.151 0 01-1.875.5A3.206 3.206 0 0015.53.75a6.93 6.93 0 01-2.062.813A3.282 3.282 0 0011.063.53 3.28 3.28 0 007.78 3.812c0 .25.032.5.094.75a9.52 9.52 0 01-6.781-3.437 3.192 3.192 0 00-.438 1.656A3.23 3.23 0 002.124 5.5c-.531-.031-1.063-.156-1.5-.406v.031A3.285 3.285 0 003.25 8.344c-.25.062-.563.125-.844.125-.219 0-.406-.031-.625-.063a3.265 3.265 0 003.063 2.281A6.597 6.597 0 01.78 12.095c-.281 0-.531-.031-.781-.063 1.438.938 3.156 1.469 5.031 1.469 6.032 0 9.313-4.969 9.313-9.313V3.75z" fill="#5A5A5A"/></svg>